<svg xmlns="http://www.w3.org/2000/svg" xmlns:xlink="http://www.w3.org/1999/xlink" width="500" zoomAndPan="magnify" viewBox="0 0 375 374.999991" height="500" preserveAspectRatio="xMidYMid meet" version="1.0"><defs><g/><clipPath id="dc7f375e48"><path d="M 6 9 L 365 9 L 365 367 L 6 367 Z M 6 9 " clip-rule="nonzero"/></clipPath><clipPath id="793533fe18"><path d="M 191.136719 -66.53125 L 387.132812 138.304688 L 127.023438 387.1875 L -68.972656 182.351562 Z M 191.136719 -66.53125 " clip-rule="nonzero"/></clipPath><clipPath id="1a0d70fc07"><path d="M 191.136719 -66.53125 L 440.019531 193.578125 L 179.910156 442.460938 L -68.972656 182.351562 Z M 191.136719 -66.53125 " clip-rule="nonzero"/></clipPath></defs><g clip-path="url(#dc7f375e48)"><g clip-path="url(#793533fe18)"><g clip-path="url(#1a0d70fc07)"><path fill="#000000" d="M 267.589844 343.15625 C 253.207031 350.597656 237.738281 355.753906 221.949219 358.894531 C 209.03125 361.375 195.914062 362.6875 182.785156 362.628906 C 181.035156 362.667969 179.292969 362.515625 177.546875 362.449219 C 175.800781 362.355469 174.054688 362.316406 172.3125 362.183594 L 167.09375 361.707031 L 164.484375 361.464844 L 161.886719 361.109375 L 156.691406 360.414062 C 154.964844 360.144531 153.25 359.804688 151.53125 359.507812 C 148.074219 358.96875 144.679688 358.128906 141.257812 357.398438 C 140.765625 357.289062 140.253906 357.175781 139.714844 357.058594 C 139.183594 356.914062 138.632812 356.761719 138.058594 356.605469 C 136.910156 356.292969 135.675781 355.953125 134.363281 355.589844 C 131.714844 354.921875 128.835938 353.890625 125.664062 352.84375 C 124.875 352.574219 124.054688 352.324219 123.242188 352.015625 C 122.429688 351.699219 121.605469 351.378906 120.761719 351.046875 C 119.078125 350.386719 117.335938 349.699219 115.539062 348.992188 C 112.035156 347.367188 108.222656 345.824219 104.449219 343.773438 C 89.054688 336.15625 72.507812 324.097656 58.464844 309.542969 C 44.542969 294.871094 33.226562 277.808594 26.292969 262.09375 C 24.410156 258.230469 23.039062 254.355469 21.566406 250.78125 C 20.941406 248.957031 20.332031 247.183594 19.746094 245.476562 C 19.453125 244.617188 19.167969 243.777344 18.886719 242.957031 C 18.613281 242.128906 18.402344 241.300781 18.164062 240.5 C 17.257812 237.28125 16.355469 234.359375 15.808594 231.6875 C 15.503906 230.359375 15.21875 229.113281 14.953125 227.953125 C 14.824219 227.371094 14.695312 226.8125 14.574219 226.277344 C 14.480469 225.734375 14.390625 225.214844 14.304688 224.71875 C 11.910156 211.804688 10.683594 198.691406 10.835938 185.5625 C 11.136719 171.578125 13.15625 157.671875 16.367188 144.042969 C 20.195312 128.40625 26.03125 113.179688 34.101562 99.136719 C 42.007812 85 52.230469 72.175781 63.878906 60.832031 C 75.71875 49.699219 88.980469 40.050781 103.457031 32.777344 C 117.839844 25.332031 133.308594 20.175781 149.097656 17.039062 C 162.015625 14.558594 175.128906 13.242188 188.261719 13.304688 C 190.007812 13.265625 191.753906 13.417969 193.5 13.480469 C 195.242188 13.574219 196.992188 13.613281 198.734375 13.746094 L 203.953125 14.226562 L 206.5625 14.464844 L 209.160156 14.820312 L 214.355469 15.515625 C 216.078125 15.785156 217.792969 16.128906 219.515625 16.425781 C 222.972656 16.960938 226.363281 17.804688 229.785156 18.535156 C 230.277344 18.640625 230.792969 18.757812 231.332031 18.875 C 231.859375 19.019531 232.414062 19.167969 232.988281 19.324219 C 234.136719 19.640625 235.367188 19.980469 236.683594 20.34375 C 239.328125 21.007812 242.207031 22.039062 245.382812 23.085938 C 246.171875 23.359375 246.988281 23.609375 247.804688 23.914062 C 248.613281 24.230469 249.441406 24.554688 250.28125 24.882812 C 251.964844 25.546875 253.707031 26.230469 255.507812 26.9375 C 259.007812 28.566406 262.820312 30.109375 266.597656 32.15625 C 281.992188 39.777344 298.539062 51.835938 312.582031 66.390625 C 326.503906 81.0625 337.820312 98.125 344.753906 113.839844 C 346.632812 117.703125 348.007812 121.578125 349.480469 125.148438 C 350.105469 126.976562 350.710938 128.746094 351.300781 130.457031 C 351.59375 131.3125 351.878906 132.152344 352.160156 132.976562 C 352.429688 133.800781 352.640625 134.632812 352.878906 135.433594 C 353.785156 138.648438 354.691406 141.570312 355.238281 144.242188 C 355.542969 145.574219 355.828125 146.820312 356.089844 147.980469 C 356.222656 148.558594 356.347656 149.117188 356.46875 149.65625 C 356.5625 150.195312 356.652344 150.71875 356.742188 151.210938 C 359.132812 164.128906 360.359375 177.242188 360.207031 190.371094 C 359.910156 204.355469 357.886719 218.261719 354.679688 231.890625 C 350.847656 247.527344 345.015625 262.753906 336.941406 276.792969 C 329.039062 290.933594 318.8125 303.757812 307.167969 315.097656 C 295.324219 326.234375 282.0625 335.882812 267.589844 343.15625 Z M 310.050781 317.9375 L 310.058594 317.925781 C 321.949219 306.34375 332.402344 293.25 340.5 278.808594 C 348.761719 264.46875 354.730469 248.898438 358.597656 232.910156 L 360.285156 225.390625 C 360.285156 225.390625 360.675781 223.304688 361.269531 220.179688 C 361.945312 217.066406 362.410156 212.847656 363.027344 208.652344 C 363.386719 204.425781 363.894531 200.214844 363.949219 197.03125 C 364.085938 193.855469 364.179688 191.742188 364.179688 191.742188 C 364.179688 191.742188 364.195312 191.210938 364.195312 190.285156 C 364.203125 189.359375 364.210938 188.035156 364.214844 186.445312 C 364.316406 183.261719 364.054688 179.03125 363.890625 174.796875 C 363.742188 172.683594 363.519531 170.578125 363.347656 168.597656 C 363.257812 167.609375 363.171875 166.652344 363.085938 165.746094 C 362.960938 164.84375 362.84375 163.992188 362.734375 163.203125 C 362.296875 160.054688 362.003906 157.957031 362.003906 157.957031 C 362.003906 157.957031 361.964844 157.476562 361.828125 156.765625 C 361.703125 156.054688 361.535156 155.109375 361.371094 154.164062 C 361.039062 152.265625 360.707031 150.371094 360.707031 150.371094 C 360.621094 149.863281 360.53125 149.332031 360.433594 148.777344 C 360.3125 148.226562 360.183594 147.65625 360.050781 147.0625 C 359.785156 145.871094 359.496094 144.59375 359.1875 143.234375 C 358.628906 140.5 357.714844 137.507812 356.789062 134.214844 C 356.546875 133.394531 356.328125 132.546875 356.054688 131.699219 C 355.769531 130.855469 355.476562 129.996094 355.179688 129.121094 C 354.578125 127.367188 353.957031 125.554688 353.320312 123.683594 C 351.820312 120.023438 350.410156 116.058594 348.492188 112.101562 C 341.402344 96.011719 329.824219 78.53125 315.578125 63.523438 C 301.210938 48.628906 284.257812 36.289062 268.496094 28.5 C 264.628906 26.40625 260.726562 24.824219 257.140625 23.167969 C 255.296875 22.445312 253.515625 21.746094 251.789062 21.070312 C 250.929688 20.734375 250.082031 20.402344 249.25 20.082031 C 248.417969 19.765625 247.582031 19.511719 246.773438 19.234375 C 243.523438 18.167969 240.574219 17.117188 237.863281 16.441406 C 236.519531 16.074219 235.257812 15.730469 234.082031 15.40625 C 233.496094 15.25 232.925781 15.097656 232.386719 14.953125 C 231.832031 14.832031 231.304688 14.71875 230.804688 14.609375 C 230.804688 14.609375 228.925781 14.195312 227.046875 13.777344 C 226.105469 13.570312 225.167969 13.363281 224.464844 13.207031 C 223.761719 13.039062 223.285156 12.980469 223.285156 12.980469 C 223.285156 12.980469 221.199219 12.59375 218.074219 12.019531 C 217.292969 11.875 216.445312 11.71875 215.550781 11.554688 C 214.648438 11.429688 213.695312 11.300781 212.710938 11.167969 C 210.742188 10.910156 208.644531 10.59375 206.542969 10.351562 C 202.316406 10 198.101562 9.554688 194.921875 9.511719 C 193.332031 9.449219 192.007812 9.398438 191.082031 9.363281 C 190.15625 9.324219 189.628906 9.316406 189.628906 9.316406 C 189.628906 9.316406 187.507812 9.316406 184.332031 9.316406 C 181.148438 9.226562 176.917969 9.550781 172.683594 9.71875 C 168.464844 10.152344 164.226562 10.433594 161.085938 10.972656 C 157.9375 11.421875 155.835938 11.726562 155.835938 11.726562 L 148.253906 13.078125 C 132.109375 16.234375 116.289062 21.511719 101.601562 29.132812 C 86.816406 36.585938 73.273438 46.457031 61.179688 57.824219 L 61.167969 57.832031 L 61.082031 57.910156 L 60.996094 57.996094 L 60.988281 58.007812 C 49.097656 69.589844 38.640625 82.683594 30.542969 97.121094 C 22.28125 111.464844 16.3125 127.035156 12.445312 143.023438 L 10.761719 150.539062 C 10.761719 150.539062 10.367188 152.625 9.777344 155.75 C 9.101562 158.867188 8.632812 163.085938 8.015625 167.28125 C 7.660156 171.503906 7.148438 175.71875 7.097656 178.898438 C 6.960938 182.074219 6.867188 184.191406 6.867188 184.191406 C 6.867188 184.191406 6.851562 184.71875 6.847656 185.648438 C 6.84375 186.574219 6.835938 187.898438 6.828125 189.488281 C 6.730469 192.667969 6.988281 196.898438 7.15625 201.132812 C 7.304688 203.246094 7.527344 205.355469 7.695312 207.335938 C 7.789062 208.324219 7.875 209.28125 7.957031 210.1875 C 8.082031 211.089844 8.203125 211.941406 8.3125 212.726562 C 8.75 215.878906 9.042969 217.976562 9.042969 217.976562 C 9.042969 217.976562 9.082031 218.457031 9.21875 219.164062 C 9.34375 219.875 9.507812 220.824219 9.671875 221.769531 C 10.003906 223.664062 10.339844 225.5625 10.339844 225.5625 C 10.425781 226.070312 10.515625 226.601562 10.609375 227.15625 C 10.730469 227.707031 10.859375 228.277344 10.992188 228.871094 C 11.261719 230.058594 11.550781 231.335938 11.859375 232.695312 C 12.414062 235.433594 13.332031 238.425781 14.257812 241.71875 C 14.496094 242.539062 14.714844 243.386719 14.992188 244.234375 C 15.277344 245.078125 15.570312 245.9375 15.867188 246.8125 C 16.464844 248.5625 17.085938 250.378906 17.726562 252.25 C 19.226562 255.90625 20.632812 259.875 22.554688 263.828125 C 29.640625 279.917969 41.222656 297.398438 55.46875 312.40625 C 69.835938 327.300781 86.785156 339.640625 102.550781 347.433594 C 106.414062 349.523438 110.316406 351.105469 113.90625 352.765625 C 115.746094 353.488281 117.53125 354.1875 119.253906 354.863281 C 120.117188 355.199219 120.964844 355.527344 121.792969 355.851562 C 122.625 356.164062 123.464844 356.417969 124.273438 356.695312 C 127.523438 357.765625 130.472656 358.8125 133.179688 359.492188 C 134.523438 359.859375 135.789062 360.203125 136.964844 360.523438 C 137.550781 360.679688 138.117188 360.835938 138.660156 360.980469 C 139.210938 361.101562 139.738281 361.214844 140.242188 361.324219 C 140.242188 361.324219 142.121094 361.738281 144 362.15625 C 144.9375 362.359375 145.878906 362.570312 146.582031 362.722656 C 147.28125 362.890625 147.761719 362.949219 147.761719 362.949219 C 147.761719 362.949219 149.84375 363.335938 152.972656 363.910156 C 153.753906 364.058594 154.601562 364.214844 155.496094 364.378906 C 156.398438 364.5 157.347656 364.632812 158.332031 364.765625 C 160.304688 365.023438 162.398438 365.335938 164.503906 365.578125 C 168.726562 365.929688 172.941406 366.378906 176.125 366.417969 C 177.710938 366.480469 179.035156 366.53125 179.960938 366.570312 C 180.886719 366.609375 181.417969 366.613281 181.417969 366.613281 C 181.417969 366.613281 183.535156 366.613281 186.714844 366.617188 C 189.894531 366.707031 194.125 366.382812 198.363281 366.210938 C 202.582031 365.78125 206.820312 365.5 209.957031 364.960938 C 213.109375 364.507812 215.207031 364.207031 215.207031 364.207031 L 222.792969 362.855469 C 238.9375 359.699219 254.753906 354.417969 269.445312 346.800781 C 284.230469 339.34375 297.773438 329.476562 309.867188 318.109375 L 309.878906 318.101562 L 310.050781 317.9375 " fill-opacity="1" fill-rule="nonzero"/></g></g></g><g fill="#000000" fill-opacity="1"><g transform="translate(142.379926, 364.588005)"><g/></g></g><g fill="#000000" fill-opacity="1"><g transform="translate(162.178781, 367.979625)"><g><path d="M 16.625 -1.5625 C 14.894531 0.0078125 12.9375 0.742188 10.75 0.640625 C 9.382812 0.578125 8.113281 0.25 6.9375 -0.34375 C 5.769531 -0.945312 4.769531 -1.742188 3.9375 -2.734375 C 3.101562 -3.734375 2.457031 -4.882812 2 -6.1875 C 1.539062 -7.5 1.347656 -8.90625 1.421875 -10.40625 C 1.484375 -11.820312 1.800781 -13.144531 2.375 -14.375 C 2.945312 -15.613281 3.707031 -16.679688 4.65625 -17.578125 C 5.601562 -18.484375 6.695312 -19.179688 7.9375 -19.671875 C 9.1875 -20.171875 10.53125 -20.382812 11.96875 -20.3125 C 13.914062 -20.226562 15.5625 -19.742188 16.90625 -18.859375 C 18.257812 -17.972656 19.253906 -16.828125 19.890625 -15.421875 L 16.796875 -13.34375 C 16.304688 -14.40625 15.601562 -15.226562 14.6875 -15.8125 C 13.769531 -16.40625 12.757812 -16.726562 11.65625 -16.78125 C 10.78125 -16.820312 9.96875 -16.671875 9.21875 -16.328125 C 8.476562 -15.992188 7.835938 -15.515625 7.296875 -14.890625 C 6.753906 -14.273438 6.320312 -13.554688 6 -12.734375 C 5.6875 -11.910156 5.507812 -11.03125 5.46875 -10.09375 C 5.414062 -9.125 5.523438 -8.210938 5.796875 -7.359375 C 6.078125 -6.503906 6.46875 -5.753906 6.96875 -5.109375 C 7.476562 -4.460938 8.097656 -3.941406 8.828125 -3.546875 C 9.566406 -3.148438 10.375 -2.929688 11.25 -2.890625 C 13.25 -2.796875 15.097656 -3.65625 16.796875 -5.46875 L 16.875 -6.921875 L 12.703125 -7.109375 L 12.828125 -10.046875 L 20.328125 -9.703125 L 19.84375 0.921875 L 16.515625 0.765625 Z M 16.625 -1.5625 "/></g></g></g><g fill="#000000" fill-opacity="1"><g transform="translate(196.365374, 368.100577)"><g><path d="M 1.765625 -0.171875 L 0.234375 -15.375 L 4.125 -15.765625 L 5.65625 -0.5625 Z M 0.03125 -17.484375 L -0.359375 -21.34375 L 3.53125 -21.734375 L 3.921875 -17.875 Z M 0.03125 -17.484375 "/></g></g></g><g fill="#000000" fill-opacity="1"><g transform="translate(216.601792, 365.506842)"><g><path d="M 5.859375 -1.09375 C 5.140625 -0.925781 4.441406 -0.882812 3.765625 -0.96875 C 3.085938 -1.050781 2.46875 -1.25 1.90625 -1.5625 C 1.34375 -1.882812 0.867188 -2.300781 0.484375 -2.8125 C 0.0976562 -3.320312 -0.171875 -3.914062 -0.328125 -4.59375 C -0.503906 -5.289062 -0.507812 -5.972656 -0.34375 -6.640625 C -0.175781 -7.316406 0.132812 -7.929688 0.59375 -8.484375 C 1.050781 -9.035156 1.640625 -9.515625 2.359375 -9.921875 C 3.078125 -10.335938 3.898438 -10.65625 4.828125 -10.875 C 5.492188 -11.03125 6.15625 -11.128906 6.8125 -11.171875 C 7.476562 -11.210938 8.082031 -11.195312 8.625 -11.125 L 8.421875 -11.96875 C 8.191406 -12.945312 7.734375 -13.632812 7.046875 -14.03125 C 6.367188 -14.425781 5.476562 -14.492188 4.375 -14.234375 C 3.582031 -14.046875 2.84375 -13.71875 2.15625 -13.25 C 1.46875 -12.78125 0.785156 -12.179688 0.109375 -11.453125 L -1.625 -13.578125 C -0.0195312 -15.304688 1.890625 -16.4375 4.109375 -16.96875 C 6.234375 -17.476562 8.015625 -17.347656 9.453125 -16.578125 C 10.890625 -15.804688 11.847656 -14.429688 12.328125 -12.453125 L 13.421875 -7.8125 C 13.515625 -7.414062 13.648438 -7.148438 13.828125 -7.015625 C 14.015625 -6.878906 14.269531 -6.84375 14.59375 -6.90625 L 15.359375 -3.671875 C 14.753906 -3.378906 14.210938 -3.175781 13.734375 -3.0625 C 13.015625 -2.894531 12.421875 -2.925781 11.953125 -3.15625 C 11.492188 -3.382812 11.160156 -3.753906 10.953125 -4.265625 L 10.671875 -5.0625 C 10.222656 -4.03125 9.578125 -3.175781 8.734375 -2.5 C 7.890625 -1.820312 6.929688 -1.351562 5.859375 -1.09375 Z M 6.28125 -4.140625 C 6.914062 -4.285156 7.492188 -4.539062 8.015625 -4.90625 C 8.546875 -5.269531 8.925781 -5.675781 9.15625 -6.125 C 9.5 -6.550781 9.617188 -6.960938 9.515625 -7.359375 L 9.109375 -9.0625 C 8.617188 -9.125 8.09375 -9.140625 7.53125 -9.109375 C 6.976562 -9.085938 6.457031 -9.019531 5.96875 -8.90625 C 4.988281 -8.664062 4.238281 -8.253906 3.71875 -7.671875 C 3.195312 -7.085938 3.019531 -6.453125 3.1875 -5.765625 C 3.332031 -5.117188 3.703125 -4.640625 4.296875 -4.328125 C 4.898438 -4.023438 5.5625 -3.960938 6.28125 -4.140625 Z M 6.28125 -4.140625 "/></g></g></g><g fill="#000000" fill-opacity="1"><g transform="translate(245.159052, 357.484907)"><g/></g></g><g fill="#000000" fill-opacity="1"><g transform="translate(263.743624, 349.873305)"><g><path d="M 2 -1.125 L -2.390625 -8.9375 L -3.59375 -8.25 L -5.015625 -10.78125 L -3.8125 -11.46875 L -8.140625 -19.171875 L -1.578125 -22.859375 C -0.0976562 -23.679688 1.328125 -24.164062 2.703125 -24.3125 C 4.085938 -24.46875 5.378906 -24.347656 6.578125 -23.953125 C 7.773438 -23.554688 8.867188 -22.914062 9.859375 -22.03125 C 10.847656 -21.15625 11.691406 -20.097656 12.390625 -18.859375 C 13.160156 -17.484375 13.644531 -16.125 13.84375 -14.78125 C 14.050781 -13.445312 13.988281 -12.164062 13.65625 -10.9375 C 13.320312 -9.707031 12.726562 -8.566406 11.875 -7.515625 C 11.019531 -6.472656 9.914062 -5.570312 8.5625 -4.8125 Z M 8.859375 -16.875 C 8.367188 -17.738281 7.800781 -18.46875 7.15625 -19.0625 C 6.507812 -19.65625 5.8125 -20.085938 5.0625 -20.359375 C 4.3125 -20.628906 3.519531 -20.71875 2.6875 -20.625 C 1.851562 -20.53125 1.007812 -20.25 0.15625 -19.78125 L -2.890625 -18.0625 L -0.296875 -13.4375 L 3.234375 -15.421875 L 4.65625 -12.890625 L 1.125 -10.90625 L 3.78125 -6.171875 L 6.828125 -7.890625 C 7.691406 -8.367188 8.375 -8.945312 8.875 -9.625 C 9.375 -10.300781 9.695312 -11.035156 9.84375 -11.828125 C 10 -12.617188 9.988281 -13.445312 9.8125 -14.3125 C 9.644531 -15.175781 9.328125 -16.03125 8.859375 -16.875 Z M 8.859375 -16.875 "/></g></g></g><g fill="#000000" fill-opacity="1"><g transform="translate(292.713723, 331.946334)"><g><path d="M 1.40625 -1.09375 L -7.9375 -13.1875 L -4.84375 -15.5625 L 4.5 -3.46875 Z M -13.015625 -16.84375 L -10.15625 -19.046875 L -6.765625 -17.28125 L -8.265625 -15.15625 Z M -13.015625 -16.84375 "/></g></g></g><g fill="#000000" fill-opacity="1"><g transform="translate(308.546314, 319.037173)"><g><path d="M 11.203125 -11.40625 L 8.46875 -8.609375 L 2.34375 -14.625 C 1.476562 -15.476562 0.695312 -15.945312 0 -16.03125 C -0.707031 -16.125 -1.328125 -15.90625 -1.859375 -15.375 C -2.128906 -15.09375 -2.351562 -14.75 -2.53125 -14.34375 C -2.707031 -13.945312 -2.816406 -13.519531 -2.859375 -13.0625 C -2.910156 -12.613281 -2.898438 -12.148438 -2.828125 -11.671875 C -2.765625 -11.191406 -2.613281 -10.738281 -2.375 -10.3125 L 3.984375 -4.0625 L 1.25 -1.265625 L -9.65625 -11.984375 L -7.1875 -14.5 L -5.15625 -12.515625 C -5.457031 -13.597656 -5.425781 -14.707031 -5.0625 -15.84375 C -4.707031 -16.988281 -4.0625 -18.039062 -3.125 -19 C -2.457031 -19.675781 -1.785156 -20.109375 -1.109375 -20.296875 C -0.429688 -20.484375 0.222656 -20.492188 0.859375 -20.328125 C 1.492188 -20.171875 2.109375 -19.882812 2.703125 -19.46875 C 3.304688 -19.0625 3.875 -18.601562 4.40625 -18.09375 Z M 11.203125 -11.40625 "/></g></g></g><g fill="#000000" fill-opacity="1"><g transform="translate(329.389311, 296.267604)"><g><path d="M 9.171875 -13.09375 L 6.9375 -9.890625 L -0.078125 -14.8125 C -1.066406 -15.5 -1.925781 -15.820312 -2.65625 -15.78125 C -3.382812 -15.738281 -3.984375 -15.382812 -4.453125 -14.71875 C -4.648438 -14.4375 -4.796875 -14.09375 -4.890625 -13.6875 C -4.992188 -13.28125 -5.023438 -12.851562 -4.984375 -12.40625 C -4.953125 -11.957031 -4.863281 -11.503906 -4.71875 -11.046875 C -4.570312 -10.585938 -4.34375 -10.164062 -4.03125 -9.78125 L 3.265625 -4.65625 L 1.015625 -1.453125 L -16.40625 -13.671875 L -14.15625 -16.875 L -6.9375 -11.8125 C -7.414062 -12.832031 -7.597656 -13.890625 -7.484375 -14.984375 C -7.378906 -16.085938 -6.988281 -17.113281 -6.3125 -18.0625 C -5.75 -18.875 -5.148438 -19.4375 -4.515625 -19.75 C -3.878906 -20.0625 -3.226562 -20.195312 -2.5625 -20.15625 C -1.894531 -20.113281 -1.226562 -19.945312 -0.5625 -19.65625 C 0.101562 -19.363281 0.75 -19 1.375 -18.5625 Z M 9.171875 -13.09375 "/></g></g></g><g fill="#000000" fill-opacity="1"><g transform="translate(345.912284, 270.560756)"><g/></g></g><g fill="#000000" fill-opacity="1"><g transform="translate(354.725947, 252.520298)"><g><path d="M 0.703125 -2.03125 L -18.875 -8.78125 L -16.421875 -15.90625 C -15.867188 -17.5 -15.125 -18.804688 -14.1875 -19.828125 C -13.257812 -20.859375 -12.210938 -21.625 -11.046875 -22.125 C -9.890625 -22.632812 -8.648438 -22.882812 -7.328125 -22.875 C -6.003906 -22.875 -4.671875 -22.640625 -3.328125 -22.171875 C -1.835938 -21.660156 -0.570312 -20.972656 0.46875 -20.109375 C 1.519531 -19.242188 2.328125 -18.242188 2.890625 -17.109375 C 3.453125 -15.972656 3.765625 -14.726562 3.828125 -13.375 C 3.890625 -12.03125 3.664062 -10.625 3.15625 -9.15625 Z M -4.65625 -18.34375 C -5.59375 -18.664062 -6.5 -18.832031 -7.375 -18.84375 C -8.257812 -18.863281 -9.070312 -18.722656 -9.8125 -18.421875 C -10.550781 -18.128906 -11.203125 -17.671875 -11.765625 -17.046875 C -12.328125 -16.429688 -12.765625 -15.664062 -13.078125 -14.75 L -14.21875 -11.4375 L -1.328125 -7 L -0.1875 -10.3125 C 0.132812 -11.25 0.253906 -12.132812 0.171875 -12.96875 C 0.0976562 -13.8125 -0.144531 -14.570312 -0.5625 -15.25 C -0.976562 -15.9375 -1.535156 -16.546875 -2.234375 -17.078125 C -2.929688 -17.609375 -3.738281 -18.03125 -4.65625 -18.34375 Z M -4.65625 -18.34375 "/></g></g></g><g fill="#000000" fill-opacity="1"><g transform="translate(364.632793, 219.772892)"><g><path d="M 1.6875 -8.703125 C 1.5 -7.492188 1.117188 -6.429688 0.546875 -5.515625 C -0.0234375 -4.609375 -0.722656 -3.863281 -1.546875 -3.28125 C -2.367188 -2.695312 -3.28125 -2.289062 -4.28125 -2.0625 C -5.28125 -1.84375 -6.296875 -1.816406 -7.328125 -1.984375 C -8.410156 -2.160156 -9.394531 -2.503906 -10.28125 -3.015625 C -11.175781 -3.535156 -11.925781 -4.203125 -12.53125 -5.015625 C -13.132812 -5.828125 -13.570312 -6.757812 -13.84375 -7.8125 C -14.113281 -8.863281 -14.148438 -10.003906 -13.953125 -11.234375 C -13.753906 -12.460938 -13.363281 -13.523438 -12.78125 -14.421875 C -12.207031 -15.328125 -11.507812 -16.0625 -10.6875 -16.625 C -9.863281 -17.195312 -8.957031 -17.585938 -7.96875 -17.796875 C -6.976562 -18.003906 -5.972656 -18.03125 -4.953125 -17.875 C -4.691406 -17.832031 -4.445312 -17.785156 -4.21875 -17.734375 C -4 -17.691406 -3.816406 -17.632812 -3.671875 -17.5625 L -5.53125 -5.890625 C -4.925781 -5.859375 -4.375 -5.921875 -3.875 -6.078125 C -3.375 -6.234375 -2.929688 -6.46875 -2.546875 -6.78125 C -2.171875 -7.101562 -1.859375 -7.476562 -1.609375 -7.90625 C -1.359375 -8.332031 -1.191406 -8.800781 -1.109375 -9.3125 C -0.984375 -10.070312 -1.054688 -10.820312 -1.328125 -11.5625 C -1.597656 -12.300781 -2.019531 -12.847656 -2.59375 -13.203125 L -1.140625 -16.359375 C -0.078125 -15.617188 0.722656 -14.578125 1.265625 -13.234375 C 1.816406 -11.898438 1.957031 -10.390625 1.6875 -8.703125 Z M -6.796875 -14.078125 C -7.929688 -14.160156 -8.898438 -13.882812 -9.703125 -13.25 C -10.515625 -12.625 -11.003906 -11.78125 -11.171875 -10.71875 C -11.253906 -10.207031 -11.238281 -9.710938 -11.125 -9.234375 C -11.007812 -8.753906 -10.816406 -8.316406 -10.546875 -7.921875 C -10.273438 -7.523438 -9.925781 -7.175781 -9.5 -6.875 C -9.070312 -6.570312 -8.585938 -6.359375 -8.046875 -6.234375 Z M -6.796875 -14.078125 "/></g></g></g><g fill="#000000" fill-opacity="1"><g transform="translate(368.355522, 189.328003)"><g><path d="M -0.015625 -5.890625 L -15.28125 -0.234375 L -15.296875 -4.25 L -3.1875 -8.15625 L -15.3125 -12.046875 L -15.3125 -15.71875 L -0.015625 -10.125 Z M -0.015625 -5.890625 "/></g></g></g><g fill="#000000" fill-opacity="1"><g transform="translate(367.161397, 160.438591)"><g/></g></g><g fill="#000000" fill-opacity="1"><g transform="translate(13.249197, 246.982568)"><g><path d="M 113.597656 -3.789062 C 99.699219 -7.925781 105.671875 -54.101562 105.671875 -63.519531 C 105.671875 -67.539062 90.855469 -68.6875 84.195312 -68.6875 C 77.300781 -68.6875 64.09375 -67.425781 64.09375 -62.371094 C 64.09375 -60.300781 66.503906 -59.613281 68.226562 -59.613281 C 69.03125 -59.613281 69.605469 -59.726562 70.066406 -59.84375 C 73.742188 -60.992188 77.648438 -61.449219 81.550781 -61.449219 C 86.605469 -61.449219 91.660156 -60.992188 96.484375 -59.957031 C 95.792969 -48.128906 95.792969 -37.101562 96.367188 -26.417969 C 91.316406 -14.703125 78.796875 -4.710938 65.816406 -4.710938 C 65.011719 -4.710938 64.324219 -4.710938 63.519531 -4.824219 C 34.457031 -7.582031 21.59375 -38.132812 21.59375 -62.828125 C 21.59375 -89.476562 37.445312 -118.078125 66.160156 -118.078125 C 75.578125 -118.078125 85.113281 -114.515625 93.039062 -108.660156 C 93.613281 -108.199219 94.53125 -107.855469 95.566406 -107.855469 C 98.4375 -107.855469 101.996094 -110.039062 101.996094 -112.21875 C 101.996094 -112.910156 101.539062 -113.714844 100.734375 -114.402344 C 90.96875 -121.410156 79.484375 -125.199219 67.769531 -125.199219 C 31.128906 -125.199219 11.371094 -92.347656 11.371094 -61.679688 C 11.371094 -31.242188 29.058594 2.410156 62.714844 2.410156 C 75.121094 2.410156 93.152344 -4.019531 97.976562 -15.964844 C 99.242188 -5.859375 104.523438 1.148438 111.417969 1.148438 C 113.367188 1.148438 118.882812 0.460938 118.882812 -3.214844 C 118.882812 -4.019531 118.421875 -4.136719 117.734375 -4.136719 C 116.699219 -4.136719 115.207031 -3.675781 114.171875 -3.675781 C 113.941406 -3.675781 113.828125 -3.789062 113.597656 -3.789062 Z M 113.597656 -3.789062 "/></g></g></g><g fill="#000000" fill-opacity="1"><g transform="translate(120.659331, 246.982568)"><g><path d="M 55.363281 -125.199219 C 43.761719 -125.199219 27.453125 -121.292969 17.804688 -114.171875 C 16.082031 -112.910156 15.621094 -111.644531 15.734375 -110.152344 C 17.6875 -94.417969 17.574219 -78.910156 17.574219 -63.289062 C 17.574219 -50.425781 17 -34.917969 15.621094 -22.167969 C 15.621094 -20.558594 10.109375 -19.984375 10.109375 -17.34375 C 10.109375 -16.882812 10.335938 -16.425781 10.796875 -15.964844 C 21.363281 -3.445312 41.464844 1.378906 57.777344 1.378906 C 90.855469 1.378906 108.890625 -27.453125 108.890625 -62.253906 C 108.890625 -95.910156 90.050781 -125.199219 55.363281 -125.199219 Z M 60.300781 -5.285156 C 48.472656 -5.285156 33.308594 -7.695312 24.925781 -15.160156 C 26.992188 -30.667969 27.910156 -49.046875 27.910156 -64.78125 C 27.910156 -80.171875 26.992188 -95.792969 25.730469 -111.070312 C 32.046875 -115.320312 44.222656 -118.539062 53.179688 -118.539062 C 85.457031 -118.539062 98.78125 -86.835938 98.78125 -61.222656 C 98.78125 -36.984375 88.445312 -5.285156 60.300781 -5.285156 Z M 60.300781 -5.285156 "/></g></g></g><g fill="#000000" fill-opacity="1"><g transform="translate(227.035746, 246.982568)"><g><path d="M 55.363281 -125.199219 C 43.761719 -125.199219 27.453125 -121.292969 17.804688 -114.171875 C 16.082031 -112.910156 15.621094 -111.644531 15.734375 -110.152344 C 17.6875 -94.417969 17.574219 -78.910156 17.574219 -63.289062 C 17.574219 -50.425781 17 -34.917969 15.621094 -22.167969 C 15.621094 -20.558594 10.109375 -19.984375 10.109375 -17.34375 C 10.109375 -16.882812 10.335938 -16.425781 10.796875 -15.964844 C 21.363281 -3.445312 41.464844 1.378906 57.777344 1.378906 C 90.855469 1.378906 108.890625 -27.453125 108.890625 -62.253906 C 108.890625 -95.910156 90.050781 -125.199219 55.363281 -125.199219 Z M 60.300781 -5.285156 C 48.472656 -5.285156 33.308594 -7.695312 24.925781 -15.160156 C 26.992188 -30.667969 27.910156 -49.046875 27.910156 -64.78125 C 27.910156 -80.171875 26.992188 -95.792969 25.730469 -111.070312 C 32.046875 -115.320312 44.222656 -118.539062 53.179688 -118.539062 C 85.457031 -118.539062 98.78125 -86.835938 98.78125 -61.222656 C 98.78125 -36.984375 88.445312 -5.285156 60.300781 -5.285156 Z M 60.300781 -5.285156 "/></g></g></g></svg>